<svg width="41" height="33" viewBox="0 0 41 33" fill="none" xmlns="http://www.w3.org/2000/svg">
<mask id="path-1-outside-1_52_9" maskUnits="userSpaceOnUse" x="-0.505859" y="-0.95752" width="41" height="35" fill="black">
<rect fill="white" x="-0.505859" y="-0.95752" width="41" height="35"/>
<path d="M7.80128 32.904C6.86363 32.7255 6.56911 32.4827 6.36862 31.7232C6.29036 31.4268 6.32116 30.7479 6.33403 30.6397L6.39169 29.4209C6.38864 28.2614 6.38712 29.5579 6.29788 27.1669C6.2847 26.8148 6.26124 26.442 6.24578 26.3385C6.23032 26.2349 6.21356 26.0857 6.20846 26.007C6.20313 25.9282 6.18081 25.787 6.15826 25.6932C6.13572 25.5994 6.08416 25.3588 6.04372 25.1586C6.00328 24.9584 5.95247 24.7155 5.93085 24.6189C5.78503 23.9669 5.86291 23.28 6.15708 22.6231C6.3673 22.1537 6.45773 21.7454 6.48446 21.1449C6.49132 20.9845 6.50259 20.746 6.50883 20.6148C6.54821 19.7909 6.48484 19.4778 6.22001 18.9474C6.04352 18.594 5.94862 18.235 5.88215 17.6695C5.85701 17.4554 5.81383 17.263 5.80834 17.3404C5.80073 17.4481 5.74345 17.7396 5.68269 17.9805C5.64263 18.1393 5.59634 18.337 5.57982 18.4198C5.5396 18.6214 5.37228 19.0095 5.23885 19.2106C4.9884 19.588 4.91234 19.6795 4.48818 20.1143C3.42958 21.1994 3.54476 21.9313 4.74205 21.8229C5.08066 21.7922 5.21864 21.829 5.27124 21.9226C5.50713 22.422 4.99582 22.9912 4.44566 23.1767C2.51696 23.5089 1.48024 21.9444 2.3083 19.9245C2.3649 19.7864 2.44334 19.5854 2.48259 19.4778C2.6042 19.1445 2.70644 18.9246 2.79208 18.8525C2.88875 18.7711 2.85696 18.7638 2.71716 18.8351C2.51028 18.9406 2.38342 19.1157 2.10193 19.6358C1.71189 20.3564 1.53055 20.3852 1.37125 19.7517C1.08753 18.6235 1.32568 18.0631 2.50027 17.1821C3.19358 16.6621 3.5342 16.3428 3.65537 16.0991C3.72812 15.9527 3.7437 15.8587 3.69197 15.8782C3.31675 16.0197 2.5637 16.0979 2.13539 16.04C1.20383 15.9138 0.2255 14.8348 0.561862 14.3044L0.638741 14.1831L0.781518 14.1974C0.860046 14.2052 1.11482 14.275 1.34768 14.3524C2.29458 14.6672 2.88598 14.6762 3.29295 14.382C3.69117 14.0941 3.8401 13.8186 4.23999 12.6301C4.77623 11.0363 5.03702 10.6137 5.71614 10.2376C6.08352 10.0342 6.72835 9.87986 7.0386 9.9211C7.12748 9.93291 7.29283 9.95005 7.40605 9.95911L7.61191 9.97564L7.90812 9.69513C8.50435 9.13053 9.30938 8.69765 10.4621 8.31225C11.3983 7.99926 12.5648 8.07982 14.9808 8.62432C15.4402 8.72786 16.1663 8.8739 16.4493 8.91968C16.8718 8.988 18.3914 8.96568 18.8593 8.88426C20.0819 8.67148 20.5917 8.46388 21.2168 7.92424C21.3536 7.8061 21.5936 7.61389 21.7502 7.49711C21.9068 7.38032 22.1676 7.18592 22.3298 7.06511C22.6791 6.80505 23.3442 6.15188 23.7806 5.64048C25.0345 4.17109 25.5704 3.85856 27.3436 3.65356C27.5749 3.64381 27.7804 3.65585 27.9918 3.65737C28.3982 3.65737 28.3714 3.67321 28.5422 3.33103C28.8014 2.81168 28.8928 2.75366 29.5088 2.71708C30.2616 2.67237 30.473 2.60289 30.5978 2.3591C30.6931 2.17298 30.7059 2.17647 31.0787 2.49028C31.4803 2.82837 31.8066 2.8912 32.4529 2.75493C32.7238 2.69781 32.7105 2.70832 32.6627 2.58881C32.5683 2.35303 32.6829 1.53604 32.85 1.25321C32.9329 1.11282 33.1853 1.00873 33.2986 1.06818C33.4319 1.13811 33.6559 1.41582 33.7317 1.60515C33.7946 1.76224 33.8444 1.69156 33.9705 1.26638C34.2954 0.170566 34.6926 -0.215127 35.0543 0.213855C35.2684 0.467687 35.3983 1.65794 35.2466 1.97592C35.1887 2.09729 35.2044 2.11736 35.5173 2.32446C35.996 2.64135 36.5197 3.19649 37.2482 4.15945C37.4467 4.42178 37.763 4.83411 37.9512 5.07573C38.8014 6.16755 39.3671 7.04796 39.9513 8.18858C40.7085 9.66685 40.2061 11.0246 38.6409 11.7299C38.1281 11.961 36.7937 11.218 36.8866 10.7531C36.901 10.6812 36.8958 10.6768 36.6596 10.5649C36.5266 10.502 36.291 10.3726 36.1361 10.2775C34.3856 9.20288 33.8285 8.95715 33.1432 8.9573C32.4675 8.95744 32.2129 9.11317 31.7582 9.80455C31.4526 10.2692 31.305 10.4641 30.8816 10.9617C29.8695 12.1512 29.7133 12.3478 29.5202 12.6759C29.2063 13.2091 29.115 13.8864 29.2756 14.4896C29.4084 14.9886 29.4205 15.0657 29.4055 15.318C29.385 15.6626 29.2994 15.9974 29.1202 16.4341C29.0509 16.6031 28.6799 17.1747 28.264 17.7531C27.8681 18.3038 27.8608 18.3294 27.8608 19.1641C27.8608 20.0105 27.826 20.1145 27.1943 21.1546C26.5943 22.1426 26.4806 22.6094 26.3135 24.7696C26.2922 25.0457 26.258 25.3846 26.2376 25.5227C26.1592 26.0538 26.1523 26.2095 26.1571 27.3427C26.1663 29.5487 26.17 29.5671 26.9129 31.0831C27.5757 32.4359 27.5185 32.5521 26.1896 32.5512C24.9301 32.5504 24.2921 32.2635 24.3545 31.7258C24.374 31.5577 24.3804 30.479 24.3622 30.4304C24.3545 30.4097 24.323 30.3193 24.2922 30.2296C24.2615 30.1399 24.2091 30.0253 24.1759 29.975C24.0481 29.7818 24.0167 28.9731 24.1059 28.1711C24.1495 27.7795 24.1751 26.8323 24.1721 25.7235C24.1683 24.4205 24.1638 24.2492 24.1204 23.9402C24.0672 23.5607 24.0368 22.8752 24.0526 22.4098C24.0688 21.9357 24.0796 21.8222 24.1573 21.3178C24.2228 20.8933 24.2155 20.5557 24.1332 20.2007C24.0474 19.8305 24.0424 19.8233 23.9176 19.8869C23.752 19.9714 23.6444 20.1903 23.5658 20.6023C23.5501 20.6852 23.4992 20.9224 23.4528 21.1295C23.2578 22.0007 23.1155 22.8201 23.1271 23.7022C23.1339 24.207 23.1188 24.8386 23.0651 25.0953C23.0051 25.3823 22.8871 25.6444 22.6748 25.962C22.3458 26.4543 22.2931 26.6475 22.1128 28.0205C21.913 29.5415 22.0429 30.1928 22.7016 30.9748C23.3001 31.6853 23.5536 32.4425 23.2518 32.6182C22.9451 32.7969 21.115 32.6947 20.6775 32.4745C20.3831 32.3264 20.1259 31.6912 19.9767 30.7442C19.9506 30.5785 19.9042 30.3018 19.8735 30.1292C19.7873 29.6434 19.8315 29.3592 20.1899 28.0958C20.6153 26.5958 20.7249 25.9387 20.6169 25.5352C20.5929 25.4455 20.5628 25.3269 20.55 25.2716C20.5245 25.1619 20.537 24.3454 20.539 24.3116L20.6131 23.4751C20.6904 22.8321 20.6053 22.5828 20.5913 22.3533C20.5481 21.6433 20.5529 21.8648 20.5049 20.9915C20.4552 20.0883 20.5186 20.1456 20.2615 20.2C18.3468 20.6046 16.4603 20.3676 14.052 19.42C13.4814 19.1954 13.3921 19.2072 12.9778 19.5614C12.5019 19.9683 12.2209 20.3975 12.0168 21.0291C11.7193 21.9497 11.2495 22.7421 10.5878 23.4395C10.0636 23.992 10.0468 24.0235 9.41057 25.6484C9.10494 26.429 9.09272 26.5302 9.08392 28.3517C9.07546 30.108 9.1108 30.2172 10.0119 31.2177C10.682 31.9618 10.8812 32.3642 10.727 32.6624C10.6011 32.9059 9.83642 32.9276 9.40851 32.6999C9.25169 32.6164 9.19973 32.6225 9.11077 32.7348C8.96951 32.9132 8.30215 32.9993 7.80128 32.904ZM8.58043 31.6116C8.32691 31.2221 8.15058 30.7996 8.06257 30.3425C7.88064 29.31 7.82798 28.2624 7.82587 27.2144C7.78878 26.6266 7.7248 25.98 8.00228 25.4722C8.12473 25.2481 8.26426 24.9298 8.33264 24.6839C8.38055 24.5115 8.38748 24.3975 8.40523 23.4838C8.41604 22.9285 8.43105 22.4642 8.43859 22.4519C8.44621 22.4397 8.45892 22.3574 8.46692 22.2691C8.5946 20.8621 8.87683 19.9677 9.4167 19.2593C9.83192 18.7143 9.99647 18.3886 10.2743 17.6416C10.341 17.4622 10.4037 17.2871 10.4136 17.2525C10.4575 17.0984 10.846 16.7646 10.9538 16.7882C11.1343 16.8279 11.1349 16.9567 10.9553 17.0732C10.7248 17.2226 10.4979 17.6577 10.3774 18.1814C10.3118 18.4669 10.0834 18.8684 9.68815 19.3593C9.23608 19.9208 9.14927 20.1051 8.97261 20.8784C8.74388 21.8798 8.70988 22.1866 8.69022 23.4265C8.67278 24.5269 8.60494 24.862 8.25841 25.5603C7.9821 25.9963 8.08801 26.5196 8.08625 27.0163C8.08321 27.9563 8.14627 28.7845 8.2536 29.74C8.34641 30.5666 8.42717 30.8205 8.79282 31.4354C8.88694 31.5937 9.01848 31.8233 9.08512 31.9457C9.40297 32.5293 9.87351 32.7644 10.4199 32.6127C10.6929 32.5369 10.4483 32.0385 9.81082 31.3718C9.1567 30.6876 8.90448 30.2158 8.83122 29.5392C8.81172 29.3589 8.7907 28.0147 8.80471 27.8447C8.80528 27.8378 8.8108 27.6491 8.81773 27.4254C8.84051 26.6553 8.96231 26.0946 9.27886 25.3034C9.9106 23.7243 9.85309 23.8278 10.475 23.1504C11.0098 22.5679 11.3217 22.0781 11.5782 21.4182L11.8222 20.7906C12.0841 20.1167 12.4273 19.6466 12.9353 19.2657C13.3659 18.9429 13.5363 18.9342 14.2449 19.1995C16.6368 20.095 18.7238 20.3536 20.2591 19.9448L20.5039 19.8796L20.5069 19.7765C20.5289 19.0599 20.4264 18.3759 20.2315 17.9375C20.1771 17.8153 20.1078 17.6588 20.0775 17.5898C20.0023 17.4187 19.7758 16.7773 19.7758 16.7356C19.7758 16.7171 19.7627 16.6701 19.7469 16.6312C19.7119 16.5458 19.7244 16.2328 19.7326 16.1435C19.7341 16.1285 19.7311 16.0805 19.7013 16.0223C19.6298 15.8821 19.6421 15.8175 19.7499 15.7667C19.8741 15.7082 19.8933 15.7563 19.9353 15.8348C19.9991 15.9541 20.0015 16.0569 20.0037 16.1865C20.006 16.3063 20.0142 16.3984 20.0383 16.5078C20.0589 16.6497 20.2627 17.254 20.4919 17.8534C20.6325 18.2233 20.7643 18.6076 20.7611 19.0033C20.8497 20.1589 20.8033 21.355 20.8867 22.5257C20.9396 22.8815 20.8928 23.2544 20.8537 23.7683C20.7971 24.5199 20.7599 24.5641 20.8409 25.2357C20.8508 25.3178 20.8741 25.4386 20.8939 25.504C21.0122 25.8937 20.8924 26.6035 20.4386 28.2042C20.1637 29.1736 20.126 29.2789 20.125 29.775C20.1242 30.2298 20.182 30.2632 20.3048 30.9202C20.4715 31.8126 20.6431 32.1863 20.9322 32.2868C21.2766 32.4066 23.0125 32.5231 23.1038 32.4326C23.2088 32.3286 22.8352 31.5319 22.4932 31.1302C21.7579 30.2665 21.6198 29.418 21.9093 27.5435C21.9232 27.4537 21.9519 27.2435 21.973 27.0763C21.9942 26.9091 22.0226 26.734 22.036 26.6873C22.0494 26.6405 22.0724 26.5345 22.0872 26.4516C22.1169 26.2852 22.2053 26.1108 22.3882 25.8579C22.554 25.6288 22.6713 25.3871 22.7659 25.0797C22.9067 24.7152 22.8601 24.322 22.8646 23.9381C22.8699 23.4531 22.8896 23.0352 22.8973 23.0092C22.905 22.9832 22.9237 22.8265 22.939 22.6608C23.0077 21.9151 23.2916 20.4302 23.4426 20.0265C23.5208 19.8174 23.6972 19.7074 24.2569 19.5182C25.4748 19.1067 26.3005 18.3253 26.4804 17.4141C26.4913 17.3589 26.5175 17.2516 26.5386 17.1757C26.5597 17.0997 26.5836 17.0055 26.5917 16.9663C26.6055 16.8986 26.609 16.8969 26.6635 16.9326C26.695 16.9532 26.7482 16.974 26.7817 16.9788C26.8414 16.9872 26.8425 16.9915 26.835 17.2007C26.8027 18.1095 26.1329 18.9158 24.883 19.5507C24.3079 19.8428 24.3404 19.7926 24.4332 20.244C24.5092 20.6141 24.5096 20.8931 24.4347 21.3178C24.3362 21.8749 24.3212 22.5785 24.3888 23.4654C24.4361 24.0844 24.4527 26.7675 24.4145 27.6062C24.4045 27.8271 24.384 28.3016 24.369 28.6606C24.3541 29.0196 24.3313 29.3329 24.3183 29.3569C24.2728 29.4412 24.2961 29.5338 24.4423 29.8488C24.6798 30.3606 24.7433 30.7492 24.6437 31.0817C24.384 31.9484 24.8546 32.3081 26.278 32.3305C27.2378 32.3457 27.2252 32.4093 26.5399 31.0078C26.0832 30.0738 26.0329 29.9327 25.9507 29.3575C25.9242 29.193 25.9199 29.0415 25.8999 28.8497C25.8887 28.7418 25.8807 28.6104 25.8687 28.3342C25.8236 27.3023 25.8511 26.249 25.9393 25.6356C26.0013 25.2038 26.0771 24.5245 26.0771 24.3997C26.0771 24.1559 26.2068 23.0709 26.2805 22.6984C26.4278 21.954 26.533 21.7085 27.1417 20.6901C27.6168 19.8953 27.6068 19.9287 27.5844 19.2216C27.5548 18.2872 27.5838 18.1678 27.9636 17.662C28.9808 16.3073 29.2649 15.4942 29.0193 14.6412C28.757 13.7305 28.931 12.9143 29.5658 12.0768C29.7498 11.834 30.5155 10.9117 30.7723 10.6236C30.9908 10.3783 31.259 10.0184 31.575 9.54625C32.3941 8.32234 33.5084 8.30797 35.4408 9.49636C36.1222 9.91547 36.3718 10.0583 36.8023 10.2757C37.1467 10.4496 37.198 10.4923 37.198 10.6045C37.198 10.848 37.6119 11.2456 38.0204 11.3945C38.4069 11.5355 38.5129 11.5261 38.7347 11.3312C38.8135 11.2619 39.0151 11.1115 39.1827 10.997C39.6373 10.6864 39.794 10.4725 39.9069 10.0085C40.0983 9.22175 40.0195 8.9114 39.3201 7.69896C38.5524 6.36807 38.4507 6.21407 37.7558 5.33183C37.6828 5.23924 37.503 5.00534 37.3561 4.81203C36.1485 3.22251 35.6171 2.67392 35.1522 2.53706C35.0555 2.50857 34.9653 2.47475 34.9519 2.46188C34.937 2.44771 34.9257 2.0852 34.9231 1.54167C34.9162 0.100939 34.8173 -0.0336778 34.4487 0.895853C34.2323 1.44177 34.1545 1.7351 34.0343 2.45892C34.0079 2.61813 33.9956 2.64056 33.9351 2.64056C33.8004 2.64056 33.7719 2.59311 33.6312 2.13488C33.2443 0.874662 32.9149 1.25645 33.0359 2.82484C33.0449 2.94138 33.0298 2.94801 32.4911 3.06696C31.6581 3.25081 30.8942 3.51568 29.5037 4.10284C28.2005 4.6531 27.4302 5.11247 26.5276 5.87752C25.5715 6.68787 25.1093 6.89401 23.7329 7.12391C22.561 7.31964 22.1481 7.50236 21.3827 8.16378C20.4583 8.96261 19.2052 9.27695 17.1151 9.23431C16.2564 9.2168 16.4356 9.24559 14.2784 8.77835C12.3096 8.3519 11.5753 8.28484 10.8709 8.46714C9.79585 8.74536 8.71447 9.3148 7.96824 10.0028C7.69072 10.2587 7.66614 10.2669 7.34935 10.2099C6.84796 10.1196 6.3981 10.1959 5.89842 10.4558C5.22639 10.8055 4.99526 11.2073 4.32088 13.1982C3.77433 14.8118 2.99225 15.1637 1.20615 14.5995C0.603635 14.4092 0.632262 14.4063 0.746001 14.646C1.3 15.8134 2.46303 16.0999 4.03521 15.4562C4.11323 15.4243 4.08046 15.9141 3.99305 16.0867C3.77781 16.5114 3.31047 16.9469 2.36468 17.6039C2.08401 17.7989 1.74274 18.1277 1.66846 18.2747C1.50117 18.6057 1.49714 19.4591 1.65322 19.765C1.71526 19.8866 1.76359 19.9183 1.7459 19.8258C1.70151 19.5936 2.28958 18.822 2.66797 18.6232C3.25315 18.3157 3.34884 18.4534 2.97745 19.0687C2.00942 20.6723 2.06345 22.291 3.08713 22.7834C3.98011 23.2129 4.86199 23.0004 5.10715 22.2967C5.20708 22.0099 5.17075 21.9818 4.76416 22.0321C3.96572 22.131 3.43327 21.6939 3.53495 21.0231C3.58499 20.6931 3.68356 20.5296 4.21203 19.9888C5.13144 19.0478 5.33511 18.6524 5.5698 17.3529C5.59349 17.2217 5.62837 17.0562 5.64741 16.985C5.66638 16.9139 5.68245 16.8065 5.68306 16.7465C5.68366 16.6865 5.69426 16.5866 5.70667 16.5245C5.74696 16.3225 5.6596 15.4737 5.58007 15.0076C5.52897 14.7081 5.54847 14.8035 5.5324 14.6822C5.51808 14.5411 5.49979 13.6327 5.56819 13.3045C5.70863 12.6306 6.43984 11.2523 6.65664 11.2528C6.8693 11.2533 6.88958 11.3738 6.71178 11.5804C6.29272 12.0673 5.98635 12.667 5.84102 13.285C5.80149 13.4531 5.78526 14.1993 5.78694 14.4004C5.79501 14.5506 5.81695 14.6344 5.83797 14.7813L6.01862 15.889C6.03858 16.0521 6.0615 16.4115 6.06958 16.6876C6.08169 17.1029 6.09022 17.1696 6.09601 17.2277C6.10492 17.3163 6.1184 17.4186 6.13021 17.5267C6.14552 17.6175 6.17027 17.7861 6.1852 17.9014C6.22427 18.2037 6.31655 18.4981 6.48546 18.8593C6.74396 19.4121 6.74897 19.4413 6.74879 20.3904C6.74854 21.7026 6.6609 22.269 6.31218 22.9656C6.03292 23.5234 6.03008 23.8378 6.29428 24.9452C6.41241 25.4402 6.46578 25.929 6.49977 26.2506C6.52277 26.4679 6.55012 27.82 6.5508 27.9513C6.55309 28.364 6.57037 28.5693 6.5837 29.337C6.59056 29.7471 6.56794 30.5383 6.55392 30.846C6.52414 31.5025 6.65748 32.0202 6.97545 32.3352C7.2434 32.6006 8.51628 32.8263 8.87283 32.673C8.99763 32.5993 9.07195 32.3019 8.58043 31.6116ZM23.6291 6.85801C24.879 6.60778 25.4604 6.34708 26.265 5.67614C26.9271 5.12391 27.145 4.96646 27.6158 4.70013C27.9383 4.51769 29.1333 3.91678 29.4682 3.76868C29.7942 3.62449 30.9839 3.17838 31.2166 3.11304C31.3846 3.06589 31.2917 2.9584 30.9416 2.79467C30.757 2.70839 30.7468 2.70928 30.4698 2.83565C30.2765 2.9238 30.1105 2.95569 29.6 3.00268C29.0201 3.05607 28.9596 3.09377 28.8241 3.48581C28.6798 3.90365 28.5833 3.94838 27.8339 3.94508C27.5647 3.94356 27.2597 3.95484 27.1561 3.96939C26.7068 4.03253 26.6061 4.05056 26.4281 4.09983C25.4499 4.37066 25.1289 4.58885 24.2536 5.57778C24.1009 5.75037 23.7651 6.10832 23.5075 6.37322C22.93 6.96713 22.9374 6.9965 23.6291 6.85801Z"/>
</mask>
<path d="M7.80128 32.904C6.86363 32.7255 6.56911 32.4827 6.36862 31.7232C6.29036 31.4268 6.32116 30.7479 6.33403 30.6397L6.39169 29.4209C6.38864 28.2614 6.38712 29.5579 6.29788 27.1669C6.2847 26.8148 6.26124 26.442 6.24578 26.3385C6.23032 26.2349 6.21356 26.0857 6.20846 26.007C6.20313 25.9282 6.18081 25.787 6.15826 25.6932C6.13572 25.5994 6.08416 25.3588 6.04372 25.1586C6.00328 24.9584 5.95247 24.7155 5.93085 24.6189C5.78503 23.9669 5.86291 23.28 6.15708 22.6231C6.3673 22.1537 6.45773 21.7454 6.48446 21.1449C6.49132 20.9845 6.50259 20.746 6.50883 20.6148C6.54821 19.7909 6.48484 19.4778 6.22001 18.9474C6.04352 18.594 5.94862 18.235 5.88215 17.6695C5.85701 17.4554 5.81383 17.263 5.80834 17.3404C5.80073 17.4481 5.74345 17.7396 5.68269 17.9805C5.64263 18.1393 5.59634 18.337 5.57982 18.4198C5.5396 18.6214 5.37228 19.0095 5.23885 19.2106C4.9884 19.588 4.91234 19.6795 4.48818 20.1143C3.42958 21.1994 3.54476 21.9313 4.74205 21.8229C5.08066 21.7922 5.21864 21.829 5.27124 21.9226C5.50713 22.422 4.99582 22.9912 4.44566 23.1767C2.51696 23.5089 1.48024 21.9444 2.3083 19.9245C2.3649 19.7864 2.44334 19.5854 2.48259 19.4778C2.6042 19.1445 2.70644 18.9246 2.79208 18.8525C2.88875 18.7711 2.85696 18.7638 2.71716 18.8351C2.51028 18.9406 2.38342 19.1157 2.10193 19.6358C1.71189 20.3564 1.53055 20.3852 1.37125 19.7517C1.08753 18.6235 1.32568 18.0631 2.50027 17.1821C3.19358 16.6621 3.5342 16.3428 3.65537 16.0991C3.72812 15.9527 3.7437 15.8587 3.69197 15.8782C3.31675 16.0197 2.5637 16.0979 2.13539 16.04C1.20383 15.9138 0.2255 14.8348 0.561862 14.3044L0.638741 14.1831L0.781518 14.1974C0.860046 14.2052 1.11482 14.275 1.34768 14.3524C2.29458 14.6672 2.88598 14.6762 3.29295 14.382C3.69117 14.0941 3.8401 13.8186 4.23999 12.6301C4.77623 11.0363 5.03702 10.6137 5.71614 10.2376C6.08352 10.0342 6.72835 9.87986 7.0386 9.9211C7.12748 9.93291 7.29283 9.95005 7.40605 9.95911L7.61191 9.97564L7.90812 9.69513C8.50435 9.13053 9.30938 8.69765 10.4621 8.31225C11.3983 7.99926 12.5648 8.07982 14.9808 8.62432C15.4402 8.72786 16.1663 8.8739 16.4493 8.91968C16.8718 8.988 18.3914 8.96568 18.8593 8.88426C20.0819 8.67148 20.5917 8.46388 21.2168 7.92424C21.3536 7.8061 21.5936 7.61389 21.7502 7.49711C21.9068 7.38032 22.1676 7.18592 22.3298 7.06511C22.6791 6.80505 23.3442 6.15188 23.7806 5.64048C25.0345 4.17109 25.5704 3.85856 27.3436 3.65356C27.5749 3.64381 27.7804 3.65585 27.9918 3.65737C28.3982 3.65737 28.3714 3.67321 28.5422 3.33103C28.8014 2.81168 28.8928 2.75366 29.5088 2.71708C30.2616 2.67237 30.473 2.60289 30.5978 2.3591C30.6931 2.17298 30.7059 2.17647 31.0787 2.49028C31.4803 2.82837 31.8066 2.8912 32.4529 2.75493C32.7238 2.69781 32.7105 2.70832 32.6627 2.58881C32.5683 2.35303 32.6829 1.53604 32.85 1.25321C32.9329 1.11282 33.1853 1.00873 33.2986 1.06818C33.4319 1.13811 33.6559 1.41582 33.7317 1.60515C33.7946 1.76224 33.8444 1.69156 33.9705 1.26638C34.2954 0.170566 34.6926 -0.215127 35.0543 0.213855C35.2684 0.467687 35.3983 1.65794 35.2466 1.97592C35.1887 2.09729 35.2044 2.11736 35.5173 2.32446C35.996 2.64135 36.5197 3.19649 37.2482 4.15945C37.4467 4.42178 37.763 4.83411 37.9512 5.07573C38.8014 6.16755 39.3671 7.04796 39.9513 8.18858C40.7085 9.66685 40.2061 11.0246 38.6409 11.7299C38.1281 11.961 36.7937 11.218 36.8866 10.7531C36.901 10.6812 36.8958 10.6768 36.6596 10.5649C36.5266 10.502 36.291 10.3726 36.1361 10.2775C34.3856 9.20288 33.8285 8.95715 33.1432 8.9573C32.4675 8.95744 32.2129 9.11317 31.7582 9.80455C31.4526 10.2692 31.305 10.4641 30.8816 10.9617C29.8695 12.1512 29.7133 12.3478 29.5202 12.6759C29.2063 13.2091 29.115 13.8864 29.2756 14.4896C29.4084 14.9886 29.4205 15.0657 29.4055 15.318C29.385 15.6626 29.2994 15.9974 29.1202 16.4341C29.0509 16.6031 28.6799 17.1747 28.264 17.7531C27.8681 18.3038 27.8608 18.3294 27.8608 19.1641C27.8608 20.0105 27.826 20.1145 27.1943 21.1546C26.5943 22.1426 26.4806 22.6094 26.3135 24.7696C26.2922 25.0457 26.258 25.3846 26.2376 25.5227C26.1592 26.0538 26.1523 26.2095 26.1571 27.3427C26.1663 29.5487 26.17 29.5671 26.9129 31.0831C27.5757 32.4359 27.5185 32.5521 26.1896 32.5512C24.9301 32.5504 24.2921 32.2635 24.3545 31.7258C24.374 31.5577 24.3804 30.479 24.3622 30.4304C24.3545 30.4097 24.323 30.3193 24.2922 30.2296C24.2615 30.1399 24.2091 30.0253 24.1759 29.975C24.0481 29.7818 24.0167 28.9731 24.1059 28.1711C24.1495 27.7795 24.1751 26.8323 24.1721 25.7235C24.1683 24.4205 24.1638 24.2492 24.1204 23.9402C24.0672 23.5607 24.0368 22.8752 24.0526 22.4098C24.0688 21.9357 24.0796 21.8222 24.1573 21.3178C24.2228 20.8933 24.2155 20.5557 24.1332 20.2007C24.0474 19.8305 24.0424 19.8233 23.9176 19.8869C23.752 19.9714 23.6444 20.1903 23.5658 20.6023C23.5501 20.6852 23.4992 20.9224 23.4528 21.1295C23.2578 22.0007 23.1155 22.8201 23.1271 23.7022C23.1339 24.207 23.1188 24.8386 23.0651 25.0953C23.0051 25.3823 22.8871 25.6444 22.6748 25.962C22.3458 26.4543 22.2931 26.6475 22.1128 28.0205C21.913 29.5415 22.0429 30.1928 22.7016 30.9748C23.3001 31.6853 23.5536 32.4425 23.2518 32.6182C22.9451 32.7969 21.115 32.6947 20.6775 32.4745C20.3831 32.3264 20.1259 31.6912 19.9767 30.7442C19.9506 30.5785 19.9042 30.3018 19.8735 30.1292C19.7873 29.6434 19.8315 29.3592 20.1899 28.0958C20.6153 26.5958 20.7249 25.9387 20.6169 25.5352C20.5929 25.4455 20.5628 25.3269 20.55 25.2716C20.5245 25.1619 20.537 24.3454 20.539 24.3116L20.6131 23.4751C20.6904 22.8321 20.6053 22.5828 20.5913 22.3533C20.5481 21.6433 20.5529 21.8648 20.5049 20.9915C20.4552 20.0883 20.5186 20.1456 20.2615 20.2C18.3468 20.6046 16.4603 20.3676 14.052 19.42C13.4814 19.1954 13.3921 19.2072 12.9778 19.5614C12.5019 19.9683 12.2209 20.3975 12.0168 21.0291C11.7193 21.9497 11.2495 22.7421 10.5878 23.4395C10.0636 23.992 10.0468 24.0235 9.41057 25.6484C9.10494 26.429 9.09272 26.5302 9.08392 28.3517C9.07546 30.108 9.1108 30.2172 10.0119 31.2177C10.682 31.9618 10.8812 32.3642 10.727 32.6624C10.6011 32.9059 9.83642 32.9276 9.40851 32.6999C9.25169 32.6164 9.19973 32.6225 9.11077 32.7348C8.96951 32.9132 8.30215 32.9993 7.80128 32.904ZM8.58043 31.6116C8.32691 31.2221 8.15058 30.7996 8.06257 30.3425C7.88064 29.31 7.82798 28.2624 7.82587 27.2144C7.78878 26.6266 7.7248 25.98 8.00228 25.4722C8.12473 25.2481 8.26426 24.9298 8.33264 24.6839C8.38055 24.5115 8.38748 24.3975 8.40523 23.4838C8.41604 22.9285 8.43105 22.4642 8.43859 22.4519C8.44621 22.4397 8.45892 22.3574 8.46692 22.2691C8.5946 20.8621 8.87683 19.9677 9.4167 19.2593C9.83192 18.7143 9.99647 18.3886 10.2743 17.6416C10.341 17.4622 10.4037 17.2871 10.4136 17.2525C10.4575 17.0984 10.846 16.7646 10.9538 16.7882C11.1343 16.8279 11.1349 16.9567 10.9553 17.0732C10.7248 17.2226 10.4979 17.6577 10.3774 18.1814C10.3118 18.4669 10.0834 18.8684 9.68815 19.3593C9.23608 19.9208 9.14927 20.1051 8.97261 20.8784C8.74388 21.8798 8.70988 22.1866 8.69022 23.4265C8.67278 24.5269 8.60494 24.862 8.25841 25.5603C7.9821 25.9963 8.08801 26.5196 8.08625 27.0163C8.08321 27.9563 8.14627 28.7845 8.2536 29.74C8.34641 30.5666 8.42717 30.8205 8.79282 31.4354C8.88694 31.5937 9.01848 31.8233 9.08512 31.9457C9.40297 32.5293 9.87351 32.7644 10.4199 32.6127C10.6929 32.5369 10.4483 32.0385 9.81082 31.3718C9.1567 30.6876 8.90448 30.2158 8.83122 29.5392C8.81172 29.3589 8.7907 28.0147 8.80471 27.8447C8.80528 27.8378 8.8108 27.6491 8.81773 27.4254C8.84051 26.6553 8.96231 26.0946 9.27886 25.3034C9.9106 23.7243 9.85309 23.8278 10.475 23.1504C11.0098 22.5679 11.3217 22.0781 11.5782 21.4182L11.8222 20.7906C12.0841 20.1167 12.4273 19.6466 12.9353 19.2657C13.3659 18.9429 13.5363 18.9342 14.2449 19.1995C16.6368 20.095 18.7238 20.3536 20.2591 19.9448L20.5039 19.8796L20.5069 19.7765C20.5289 19.0599 20.4264 18.3759 20.2315 17.9375C20.1771 17.8153 20.1078 17.6588 20.0775 17.5898C20.0023 17.4187 19.7758 16.7773 19.7758 16.7356C19.7758 16.7171 19.7627 16.6701 19.7469 16.6312C19.7119 16.5458 19.7244 16.2328 19.7326 16.1435C19.7341 16.1285 19.7311 16.0805 19.7013 16.0223C19.6298 15.8821 19.6421 15.8175 19.7499 15.7667C19.8741 15.7082 19.8933 15.7563 19.9353 15.8348C19.9991 15.9541 20.0015 16.0569 20.0037 16.1865C20.006 16.3063 20.0142 16.3984 20.0383 16.5078C20.0589 16.6497 20.2627 17.254 20.4919 17.8534C20.6325 18.2233 20.7643 18.6076 20.7611 19.0033C20.8497 20.1589 20.8033 21.355 20.8867 22.5257C20.9396 22.8815 20.8928 23.2544 20.8537 23.7683C20.7971 24.5199 20.7599 24.5641 20.8409 25.2357C20.8508 25.3178 20.8741 25.4386 20.8939 25.504C21.0122 25.8937 20.8924 26.6035 20.4386 28.2042C20.1637 29.1736 20.126 29.2789 20.125 29.775C20.1242 30.2298 20.182 30.2632 20.3048 30.9202C20.4715 31.8126 20.6431 32.1863 20.9322 32.2868C21.2766 32.4066 23.0125 32.5231 23.1038 32.4326C23.2088 32.3286 22.8352 31.5319 22.4932 31.1302C21.7579 30.2665 21.6198 29.418 21.9093 27.5435C21.9232 27.4537 21.9519 27.2435 21.973 27.0763C21.9942 26.9091 22.0226 26.734 22.036 26.6873C22.0494 26.6405 22.0724 26.5345 22.0872 26.4516C22.1169 26.2852 22.2053 26.1108 22.3882 25.8579C22.554 25.6288 22.6713 25.3871 22.7659 25.0797C22.9067 24.7152 22.8601 24.322 22.8646 23.9381C22.8699 23.4531 22.8896 23.0352 22.8973 23.0092C22.905 22.9832 22.9237 22.8265 22.939 22.6608C23.0077 21.9151 23.2916 20.4302 23.4426 20.0265C23.5208 19.8174 23.6972 19.7074 24.2569 19.5182C25.4748 19.1067 26.3005 18.3253 26.4804 17.4141C26.4913 17.3589 26.5175 17.2516 26.5386 17.1757C26.5597 17.0997 26.5836 17.0055 26.5917 16.9663C26.6055 16.8986 26.609 16.8969 26.6635 16.9326C26.695 16.9532 26.7482 16.974 26.7817 16.9788C26.8414 16.9872 26.8425 16.9915 26.835 17.2007C26.8027 18.1095 26.1329 18.9158 24.883 19.5507C24.3079 19.8428 24.3404 19.7926 24.4332 20.244C24.5092 20.6141 24.5096 20.8931 24.4347 21.3178C24.3362 21.8749 24.3212 22.5785 24.3888 23.4654C24.4361 24.0844 24.4527 26.7675 24.4145 27.6062C24.4045 27.8271 24.384 28.3016 24.369 28.6606C24.3541 29.0196 24.3313 29.3329 24.3183 29.3569C24.2728 29.4412 24.2961 29.5338 24.4423 29.8488C24.6798 30.3606 24.7433 30.7492 24.6437 31.0817C24.384 31.9484 24.8546 32.3081 26.278 32.3305C27.2378 32.3457 27.2252 32.4093 26.5399 31.0078C26.0832 30.0738 26.0329 29.9327 25.9507 29.3575C25.9242 29.193 25.9199 29.0415 25.8999 28.8497C25.8887 28.7418 25.8807 28.6104 25.8687 28.3342C25.8236 27.3023 25.8511 26.249 25.9393 25.6356C26.0013 25.2038 26.0771 24.5245 26.0771 24.3997C26.0771 24.1559 26.2068 23.0709 26.2805 22.6984C26.4278 21.954 26.533 21.7085 27.1417 20.6901C27.6168 19.8953 27.6068 19.9287 27.5844 19.2216C27.5548 18.2872 27.5838 18.1678 27.9636 17.662C28.9808 16.3073 29.2649 15.4942 29.0193 14.6412C28.757 13.7305 28.931 12.9143 29.5658 12.0768C29.7498 11.834 30.5155 10.9117 30.7723 10.6236C30.9908 10.3783 31.259 10.0184 31.575 9.54625C32.3941 8.32234 33.5084 8.30797 35.4408 9.49636C36.1222 9.91547 36.3718 10.0583 36.8023 10.2757C37.1467 10.4496 37.198 10.4923 37.198 10.6045C37.198 10.848 37.6119 11.2456 38.0204 11.3945C38.4069 11.5355 38.5129 11.5261 38.7347 11.3312C38.8135 11.2619 39.0151 11.1115 39.1827 10.997C39.6373 10.6864 39.794 10.4725 39.9069 10.0085C40.0983 9.22175 40.0195 8.9114 39.3201 7.69896C38.5524 6.36807 38.4507 6.21407 37.7558 5.33183C37.6828 5.23924 37.503 5.00534 37.3561 4.81203C36.1485 3.22251 35.6171 2.67392 35.1522 2.53706C35.0555 2.50857 34.9653 2.47475 34.9519 2.46188C34.937 2.44771 34.9257 2.0852 34.9231 1.54167C34.9162 0.100939 34.8173 -0.0336778 34.4487 0.895853C34.2323 1.44177 34.1545 1.7351 34.0343 2.45892C34.0079 2.61813 33.9956 2.64056 33.9351 2.64056C33.8004 2.64056 33.7719 2.59311 33.6312 2.13488C33.2443 0.874662 32.9149 1.25645 33.0359 2.82484C33.0449 2.94138 33.0298 2.94801 32.4911 3.06696C31.6581 3.25081 30.8942 3.51568 29.5037 4.10284C28.2005 4.6531 27.4302 5.11247 26.5276 5.87752C25.5715 6.68787 25.1093 6.89401 23.7329 7.12391C22.561 7.31964 22.1481 7.50236 21.3827 8.16378C20.4583 8.96261 19.2052 9.27695 17.1151 9.23431C16.2564 9.2168 16.4356 9.24559 14.2784 8.77835C12.3096 8.3519 11.5753 8.28484 10.8709 8.46714C9.79585 8.74536 8.71447 9.3148 7.96824 10.0028C7.69072 10.2587 7.66614 10.2669 7.34935 10.2099C6.84796 10.1196 6.3981 10.1959 5.89842 10.4558C5.22639 10.8055 4.99526 11.2073 4.32088 13.1982C3.77433 14.8118 2.99225 15.1637 1.20615 14.5995C0.603635 14.4092 0.632262 14.4063 0.746001 14.646C1.3 15.8134 2.46303 16.0999 4.03521 15.4562C4.11323 15.4243 4.08046 15.9141 3.99305 16.0867C3.77781 16.5114 3.31047 16.9469 2.36468 17.6039C2.08401 17.7989 1.74274 18.1277 1.66846 18.2747C1.50117 18.6057 1.49714 19.4591 1.65322 19.765C1.71526 19.8866 1.76359 19.9183 1.7459 19.8258C1.70151 19.5936 2.28958 18.822 2.66797 18.6232C3.25315 18.3157 3.34884 18.4534 2.97745 19.0687C2.00942 20.6723 2.06345 22.291 3.08713 22.7834C3.98011 23.2129 4.86199 23.0004 5.10715 22.2967C5.20708 22.0099 5.17075 21.9818 4.76416 22.0321C3.96572 22.131 3.43327 21.6939 3.53495 21.0231C3.58499 20.6931 3.68356 20.5296 4.21203 19.9888C5.13144 19.0478 5.33511 18.6524 5.5698 17.3529C5.59349 17.2217 5.62837 17.0562 5.64741 16.985C5.66638 16.9139 5.68245 16.8065 5.68306 16.7465C5.68366 16.6865 5.69426 16.5866 5.70667 16.5245C5.74696 16.3225 5.6596 15.4737 5.58007 15.0076C5.52897 14.7081 5.54847 14.8035 5.5324 14.6822C5.51808 14.5411 5.49979 13.6327 5.56819 13.3045C5.70863 12.6306 6.43984 11.2523 6.65664 11.2528C6.8693 11.2533 6.88958 11.3738 6.71178 11.5804C6.29272 12.0673 5.98635 12.667 5.84102 13.285C5.80149 13.4531 5.78526 14.1993 5.78694 14.4004C5.79501 14.5506 5.81695 14.6344 5.83797 14.7813L6.01862 15.889C6.03858 16.0521 6.0615 16.4115 6.06958 16.6876C6.08169 17.1029 6.09022 17.1696 6.09601 17.2277C6.10492 17.3163 6.1184 17.4186 6.13021 17.5267C6.14552 17.6175 6.17027 17.7861 6.1852 17.9014C6.22427 18.2037 6.31655 18.4981 6.48546 18.8593C6.74396 19.4121 6.74897 19.4413 6.74879 20.3904C6.74854 21.7026 6.6609 22.269 6.31218 22.9656C6.03292 23.5234 6.03008 23.8378 6.29428 24.9452C6.41241 25.4402 6.46578 25.929 6.49977 26.2506C6.52277 26.4679 6.55012 27.82 6.5508 27.9513C6.55309 28.364 6.57037 28.5693 6.5837 29.337C6.59056 29.7471 6.56794 30.5383 6.55392 30.846C6.52414 31.5025 6.65748 32.0202 6.97545 32.3352C7.2434 32.6006 8.51628 32.8263 8.87283 32.673C8.99763 32.5993 9.07195 32.3019 8.58043 31.6116ZM23.6291 6.85801C24.879 6.60778 25.4604 6.34708 26.265 5.67614C26.9271 5.12391 27.145 4.96646 27.6158 4.70013C27.9383 4.51769 29.1333 3.91678 29.4682 3.76868C29.7942 3.62449 30.9839 3.17838 31.2166 3.11304C31.3846 3.06589 31.2917 2.9584 30.9416 2.79467C30.757 2.70839 30.7468 2.70928 30.4698 2.83565C30.2765 2.9238 30.1105 2.95569 29.6 3.00268C29.0201 3.05607 28.9596 3.09377 28.8241 3.48581C28.6798 3.90365 28.5833 3.94838 27.8339 3.94508C27.5647 3.94356 27.2597 3.95484 27.1561 3.96939C26.7068 4.03253 26.6061 4.05056 26.4281 4.09983C25.4499 4.37066 25.1289 4.58885 24.2536 5.57778C24.1009 5.75037 23.7651 6.10832 23.5075 6.37322C22.93 6.96713 22.9374 6.9965 23.6291 6.85801Z" fill="black"/>
<path d="M7.80128 32.904C6.86363 32.7255 6.56911 32.4827 6.36862 31.7232C6.29036 31.4268 6.32116 30.7479 6.33403 30.6397L6.39169 29.4209C6.38864 28.2614 6.38712 29.5579 6.29788 27.1669C6.2847 26.8148 6.26124 26.442 6.24578 26.3385C6.23032 26.2349 6.21356 26.0857 6.20846 26.007C6.20313 25.9282 6.18081 25.787 6.15826 25.6932C6.13572 25.5994 6.08416 25.3588 6.04372 25.1586C6.00328 24.9584 5.95247 24.7155 5.93085 24.6189C5.78503 23.9669 5.86291 23.28 6.15708 22.6231C6.3673 22.1537 6.45773 21.7454 6.48446 21.1449C6.49132 20.9845 6.50259 20.746 6.50883 20.6148C6.54821 19.7909 6.48484 19.4778 6.22001 18.9474C6.04352 18.594 5.94862 18.235 5.88215 17.6695C5.85701 17.4554 5.81383 17.263 5.80834 17.3404C5.80073 17.4481 5.74345 17.7396 5.68269 17.9805C5.64263 18.1393 5.59634 18.337 5.57982 18.4198C5.5396 18.6214 5.37228 19.0095 5.23885 19.2106C4.9884 19.588 4.91234 19.6795 4.48818 20.1143C3.42958 21.1994 3.54476 21.9313 4.74205 21.8229C5.08066 21.7922 5.21864 21.829 5.27124 21.9226C5.50713 22.422 4.99582 22.9912 4.44566 23.1767C2.51696 23.5089 1.48024 21.9444 2.3083 19.9245C2.3649 19.7864 2.44334 19.5854 2.48259 19.4778C2.6042 19.1445 2.70644 18.9246 2.79208 18.8525C2.88875 18.7711 2.85696 18.7638 2.71716 18.8351C2.51028 18.9406 2.38342 19.1157 2.10193 19.6358C1.71189 20.3564 1.53055 20.3852 1.37125 19.7517C1.08753 18.6235 1.32568 18.0631 2.50027 17.1821C3.19358 16.6621 3.5342 16.3428 3.65537 16.0991C3.72812 15.9527 3.7437 15.8587 3.69197 15.8782C3.31675 16.0197 2.5637 16.0979 2.13539 16.04C1.20383 15.9138 0.2255 14.8348 0.561862 14.3044L0.638741 14.1831L0.781518 14.1974C0.860046 14.2052 1.11482 14.275 1.34768 14.3524C2.29458 14.6672 2.88598 14.6762 3.29295 14.382C3.69117 14.0941 3.8401 13.8186 4.23999 12.6301C4.77623 11.0363 5.03702 10.6137 5.71614 10.2376C6.08352 10.0342 6.72835 9.87986 7.0386 9.9211C7.12748 9.93291 7.29283 9.95005 7.40605 9.95911L7.61191 9.97564L7.90812 9.69513C8.50435 9.13053 9.30938 8.69765 10.4621 8.31225C11.3983 7.99926 12.5648 8.07982 14.9808 8.62432C15.4402 8.72786 16.1663 8.8739 16.4493 8.91968C16.8718 8.988 18.3914 8.96568 18.8593 8.88426C20.0819 8.67148 20.5917 8.46388 21.2168 7.92424C21.3536 7.8061 21.5936 7.61389 21.7502 7.49711C21.9068 7.38032 22.1676 7.18592 22.3298 7.06511C22.6791 6.80505 23.3442 6.15188 23.7806 5.64048C25.0345 4.17109 25.5704 3.85856 27.3436 3.65356C27.5749 3.64381 27.7804 3.65585 27.9918 3.65737C28.3982 3.65737 28.3714 3.67321 28.5422 3.33103C28.8014 2.81168 28.8928 2.75366 29.5088 2.71708C30.2616 2.67237 30.473 2.60289 30.5978 2.3591C30.6931 2.17298 30.7059 2.17647 31.0787 2.49028C31.4803 2.82837 31.8066 2.8912 32.4529 2.75493C32.7238 2.69781 32.7105 2.70832 32.6627 2.58881C32.5683 2.35303 32.6829 1.53604 32.85 1.25321C32.9329 1.11282 33.1853 1.00873 33.2986 1.06818C33.4319 1.13811 33.6559 1.41582 33.7317 1.60515C33.7946 1.76224 33.8444 1.69156 33.9705 1.26638C34.2954 0.170566 34.6926 -0.215127 35.0543 0.213855C35.2684 0.467687 35.3983 1.65794 35.2466 1.97592C35.1887 2.09729 35.2044 2.11736 35.5173 2.32446C35.996 2.64135 36.5197 3.19649 37.2482 4.15945C37.4467 4.42178 37.763 4.83411 37.9512 5.07573C38.8014 6.16755 39.3671 7.04796 39.9513 8.18858C40.7085 9.66685 40.2061 11.0246 38.6409 11.7299C38.1281 11.961 36.7937 11.218 36.8866 10.7531C36.901 10.6812 36.8958 10.6768 36.6596 10.5649C36.5266 10.502 36.291 10.3726 36.1361 10.2775C34.3856 9.20288 33.8285 8.95715 33.1432 8.9573C32.4675 8.95744 32.2129 9.11317 31.7582 9.80455C31.4526 10.2692 31.305 10.4641 30.8816 10.9617C29.8695 12.1512 29.7133 12.3478 29.5202 12.6759C29.2063 13.2091 29.115 13.8864 29.2756 14.4896C29.4084 14.9886 29.4205 15.0657 29.4055 15.318C29.385 15.6626 29.2994 15.9974 29.1202 16.4341C29.0509 16.6031 28.6799 17.1747 28.264 17.7531C27.8681 18.3038 27.8608 18.3294 27.8608 19.1641C27.8608 20.0105 27.826 20.1145 27.1943 21.1546C26.5943 22.1426 26.4806 22.6094 26.3135 24.7696C26.2922 25.0457 26.258 25.3846 26.2376 25.5227C26.1592 26.0538 26.1523 26.2095 26.1571 27.3427C26.1663 29.5487 26.17 29.5671 26.9129 31.0831C27.5757 32.4359 27.5185 32.5521 26.1896 32.5512C24.9301 32.5504 24.2921 32.2635 24.3545 31.7258C24.374 31.5577 24.3804 30.479 24.3622 30.4304C24.3545 30.4097 24.323 30.3193 24.2922 30.2296C24.2615 30.1399 24.2091 30.0253 24.1759 29.975C24.0481 29.7818 24.0167 28.9731 24.1059 28.1711C24.1495 27.7795 24.1751 26.8323 24.1721 25.7235C24.1683 24.4205 24.1638 24.2492 24.1204 23.9402C24.0672 23.5607 24.0368 22.8752 24.0526 22.4098C24.0688 21.9357 24.0796 21.8222 24.1573 21.3178C24.2228 20.8933 24.2155 20.5557 24.1332 20.2007C24.0474 19.8305 24.0424 19.8233 23.9176 19.8869C23.752 19.9714 23.6444 20.1903 23.5658 20.6023C23.5501 20.6852 23.4992 20.9224 23.4528 21.1295C23.2578 22.0007 23.1155 22.8201 23.1271 23.7022C23.1339 24.207 23.1188 24.8386 23.0651 25.0953C23.0051 25.3823 22.8871 25.6444 22.6748 25.962C22.3458 26.4543 22.2931 26.6475 22.1128 28.0205C21.913 29.5415 22.0429 30.1928 22.7016 30.9748C23.3001 31.6853 23.5536 32.4425 23.2518 32.6182C22.9451 32.7969 21.115 32.6947 20.6775 32.4745C20.3831 32.3264 20.1259 31.6912 19.9767 30.7442C19.9506 30.5785 19.9042 30.3018 19.8735 30.1292C19.7873 29.6434 19.8315 29.3592 20.1899 28.0958C20.6153 26.5958 20.7249 25.9387 20.6169 25.5352C20.5929 25.4455 20.5628 25.3269 20.55 25.2716C20.5245 25.1619 20.537 24.3454 20.539 24.3116L20.6131 23.4751C20.6904 22.8321 20.6053 22.5828 20.5913 22.3533C20.5481 21.6433 20.5529 21.8648 20.5049 20.9915C20.4552 20.0883 20.5186 20.1456 20.2615 20.2C18.3468 20.6046 16.4603 20.3676 14.052 19.42C13.4814 19.1954 13.3921 19.2072 12.9778 19.5614C12.5019 19.9683 12.2209 20.3975 12.0168 21.0291C11.7193 21.9497 11.2495 22.7421 10.5878 23.4395C10.0636 23.992 10.0468 24.0235 9.41057 25.6484C9.10494 26.429 9.09272 26.5302 9.08392 28.3517C9.07546 30.108 9.1108 30.2172 10.0119 31.2177C10.682 31.9618 10.8812 32.3642 10.727 32.6624C10.6011 32.9059 9.83642 32.9276 9.40851 32.6999C9.25169 32.6164 9.19973 32.6225 9.11077 32.7348C8.96951 32.9132 8.30215 32.9993 7.80128 32.904ZM8.58043 31.6116C8.32691 31.2221 8.15058 30.7996 8.06257 30.3425C7.88064 29.31 7.82798 28.2624 7.82587 27.2144C7.78878 26.6266 7.7248 25.98 8.00228 25.4722C8.12473 25.2481 8.26426 24.9298 8.33264 24.6839C8.38055 24.5115 8.38748 24.3975 8.40523 23.4838C8.41604 22.9285 8.43105 22.4642 8.43859 22.4519C8.44621 22.4397 8.45892 22.3574 8.46692 22.2691C8.5946 20.8621 8.87683 19.9677 9.4167 19.2593C9.83192 18.7143 9.99647 18.3886 10.2743 17.6416C10.341 17.4622 10.4037 17.2871 10.4136 17.2525C10.4575 17.0984 10.846 16.7646 10.9538 16.7882C11.1343 16.8279 11.1349 16.9567 10.9553 17.0732C10.7248 17.2226 10.4979 17.6577 10.3774 18.1814C10.3118 18.4669 10.0834 18.8684 9.68815 19.3593C9.23608 19.9208 9.14927 20.1051 8.97261 20.8784C8.74388 21.8798 8.70988 22.1866 8.69022 23.4265C8.67278 24.5269 8.60494 24.862 8.25841 25.5603C7.9821 25.9963 8.08801 26.5196 8.08625 27.0163C8.08321 27.9563 8.14627 28.7845 8.2536 29.74C8.34641 30.5666 8.42717 30.8205 8.79282 31.4354C8.88694 31.5937 9.01848 31.8233 9.08512 31.9457C9.40297 32.5293 9.87351 32.7644 10.4199 32.6127C10.6929 32.5369 10.4483 32.0385 9.81082 31.3718C9.1567 30.6876 8.90448 30.2158 8.83122 29.5392C8.81172 29.3589 8.7907 28.0147 8.80471 27.8447C8.80528 27.8378 8.8108 27.6491 8.81773 27.4254C8.84051 26.6553 8.96231 26.0946 9.27886 25.3034C9.9106 23.7243 9.85309 23.8278 10.475 23.1504C11.0098 22.5679 11.3217 22.0781 11.5782 21.4182L11.8222 20.7906C12.0841 20.1167 12.4273 19.6466 12.9353 19.2657C13.3659 18.9429 13.5363 18.9342 14.2449 19.1995C16.6368 20.095 18.7238 20.3536 20.2591 19.9448L20.5039 19.8796L20.5069 19.7765C20.5289 19.0599 20.4264 18.3759 20.2315 17.9375C20.1771 17.8153 20.1078 17.6588 20.0775 17.5898C20.0023 17.4187 19.7758 16.7773 19.7758 16.7356C19.7758 16.7171 19.7627 16.6701 19.7469 16.6312C19.7119 16.5458 19.7244 16.2328 19.7326 16.1435C19.7341 16.1285 19.7311 16.0805 19.7013 16.0223C19.6298 15.8821 19.6421 15.8175 19.7499 15.7667C19.8741 15.7082 19.8933 15.7563 19.9353 15.8348C19.9991 15.9541 20.0015 16.0569 20.0037 16.1865C20.006 16.3063 20.0142 16.3984 20.0383 16.5078C20.0589 16.6497 20.2627 17.254 20.4919 17.8534C20.6325 18.2233 20.7643 18.6076 20.7611 19.0033C20.8497 20.1589 20.8033 21.355 20.8867 22.5257C20.9396 22.8815 20.8928 23.2544 20.8537 23.7683C20.7971 24.5199 20.7599 24.5641 20.8409 25.2357C20.8508 25.3178 20.8741 25.4386 20.8939 25.504C21.0122 25.8937 20.8924 26.6035 20.4386 28.2042C20.1637 29.1736 20.126 29.2789 20.125 29.775C20.1242 30.2298 20.182 30.2632 20.3048 30.9202C20.4715 31.8126 20.6431 32.1863 20.9322 32.2868C21.2766 32.4066 23.0125 32.5231 23.1038 32.4326C23.2088 32.3286 22.8352 31.5319 22.4932 31.1302C21.7579 30.2665 21.6198 29.418 21.9093 27.5435C21.9232 27.4537 21.9519 27.2435 21.973 27.0763C21.9942 26.9091 22.0226 26.734 22.036 26.6873C22.0494 26.6405 22.0724 26.5345 22.0872 26.4516C22.1169 26.2852 22.2053 26.1108 22.3882 25.8579C22.554 25.6288 22.6713 25.3871 22.7659 25.0797C22.9067 24.7152 22.8601 24.322 22.8646 23.9381C22.8699 23.4531 22.8896 23.0352 22.8973 23.0092C22.905 22.9832 22.9237 22.8265 22.939 22.6608C23.0077 21.9151 23.2916 20.4302 23.4426 20.0265C23.5208 19.8174 23.6972 19.7074 24.2569 19.5182C25.4748 19.1067 26.3005 18.3253 26.4804 17.4141C26.4913 17.3589 26.5175 17.2516 26.5386 17.1757C26.5597 17.0997 26.5836 17.0055 26.5917 16.9663C26.6055 16.8986 26.609 16.8969 26.6635 16.9326C26.695 16.9532 26.7482 16.974 26.7817 16.9788C26.8414 16.9872 26.8425 16.9915 26.835 17.2007C26.8027 18.1095 26.1329 18.9158 24.883 19.5507C24.3079 19.8428 24.3404 19.7926 24.4332 20.244C24.5092 20.6141 24.5096 20.8931 24.4347 21.3178C24.3362 21.8749 24.3212 22.5785 24.3888 23.4654C24.4361 24.0844 24.4527 26.7675 24.4145 27.6062C24.4045 27.8271 24.384 28.3016 24.369 28.6606C24.3541 29.0196 24.3313 29.3329 24.3183 29.3569C24.2728 29.4412 24.2961 29.5338 24.4423 29.8488C24.6798 30.3606 24.7433 30.7492 24.6437 31.0817C24.384 31.9484 24.8546 32.3081 26.278 32.3305C27.2378 32.3457 27.2252 32.4093 26.5399 31.0078C26.0832 30.0738 26.0329 29.9327 25.9507 29.3575C25.9242 29.193 25.9199 29.0415 25.8999 28.8497C25.8887 28.7418 25.8807 28.6104 25.8687 28.3342C25.8236 27.3023 25.8511 26.249 25.9393 25.6356C26.0013 25.2038 26.0771 24.5245 26.0771 24.3997C26.0771 24.1559 26.2068 23.0709 26.2805 22.6984C26.4278 21.954 26.533 21.7085 27.1417 20.6901C27.6168 19.8953 27.6068 19.9287 27.5844 19.2216C27.5548 18.2872 27.5838 18.1678 27.9636 17.662C28.9808 16.3073 29.2649 15.4942 29.0193 14.6412C28.757 13.7305 28.931 12.9143 29.5658 12.0768C29.7498 11.834 30.5155 10.9117 30.7723 10.6236C30.9908 10.3783 31.259 10.0184 31.575 9.54625C32.3941 8.32234 33.5084 8.30797 35.4408 9.49636C36.1222 9.91547 36.3718 10.0583 36.8023 10.2757C37.1467 10.4496 37.198 10.4923 37.198 10.6045C37.198 10.848 37.6119 11.2456 38.0204 11.3945C38.4069 11.5355 38.5129 11.5261 38.7347 11.3312C38.8135 11.2619 39.0151 11.1115 39.1827 10.997C39.6373 10.6864 39.794 10.4725 39.9069 10.0085C40.0983 9.22175 40.0195 8.9114 39.3201 7.69896C38.5524 6.36807 38.4507 6.21407 37.7558 5.33183C37.6828 5.23924 37.503 5.00534 37.3561 4.81203C36.1485 3.22251 35.6171 2.67392 35.1522 2.53706C35.0555 2.50857 34.9653 2.47475 34.9519 2.46188C34.937 2.44771 34.9257 2.0852 34.9231 1.54167C34.9162 0.100939 34.8173 -0.0336778 34.4487 0.895853C34.2323 1.44177 34.1545 1.7351 34.0343 2.45892C34.0079 2.61813 33.9956 2.64056 33.9351 2.64056C33.8004 2.64056 33.7719 2.59311 33.6312 2.13488C33.2443 0.874662 32.9149 1.25645 33.0359 2.82484C33.0449 2.94138 33.0298 2.94801 32.4911 3.06696C31.6581 3.25081 30.8942 3.51568 29.5037 4.10284C28.2005 4.6531 27.4302 5.11247 26.5276 5.87752C25.5715 6.68787 25.1093 6.89401 23.7329 7.12391C22.561 7.31964 22.1481 7.50236 21.3827 8.16378C20.4583 8.96261 19.2052 9.27695 17.1151 9.23431C16.2564 9.2168 16.4356 9.24559 14.2784 8.77835C12.3096 8.3519 11.5753 8.28484 10.8709 8.46714C9.79585 8.74536 8.71447 9.3148 7.96824 10.0028C7.69072 10.2587 7.66614 10.2669 7.34935 10.2099C6.84796 10.1196 6.3981 10.1959 5.89842 10.4558C5.22639 10.8055 4.99526 11.2073 4.32088 13.1982C3.77433 14.8118 2.99225 15.1637 1.20615 14.5995C0.603635 14.4092 0.632262 14.4063 0.746001 14.646C1.3 15.8134 2.46303 16.0999 4.03521 15.4562C4.11323 15.4243 4.08046 15.9141 3.99305 16.0867C3.77781 16.5114 3.31047 16.9469 2.36468 17.6039C2.08401 17.7989 1.74274 18.1277 1.66846 18.2747C1.50117 18.6057 1.49714 19.4591 1.65322 19.765C1.71526 19.8866 1.76359 19.9183 1.7459 19.8258C1.70151 19.5936 2.28958 18.822 2.66797 18.6232C3.25315 18.3157 3.34884 18.4534 2.97745 19.0687C2.00942 20.6723 2.06345 22.291 3.08713 22.7834C3.98011 23.2129 4.86199 23.0004 5.10715 22.2967C5.20708 22.0099 5.17075 21.9818 4.76416 22.0321C3.96572 22.131 3.43327 21.6939 3.53495 21.0231C3.58499 20.6931 3.68356 20.5296 4.21203 19.9888C5.13144 19.0478 5.33511 18.6524 5.5698 17.3529C5.59349 17.2217 5.62837 17.0562 5.64741 16.985C5.66638 16.9139 5.68245 16.8065 5.68306 16.7465C5.68366 16.6865 5.69426 16.5866 5.70667 16.5245C5.74696 16.3225 5.6596 15.4737 5.58007 15.0076C5.52897 14.7081 5.54847 14.8035 5.5324 14.6822C5.51808 14.5411 5.49979 13.6327 5.56819 13.3045C5.70863 12.6306 6.43984 11.2523 6.65664 11.2528C6.8693 11.2533 6.88958 11.3738 6.71178 11.5804C6.29272 12.0673 5.98635 12.667 5.84102 13.285C5.80149 13.4531 5.78526 14.1993 5.78694 14.4004C5.79501 14.5506 5.81695 14.6344 5.83797 14.7813L6.01862 15.889C6.03858 16.0521 6.0615 16.4115 6.06958 16.6876C6.08169 17.1029 6.09022 17.1696 6.09601 17.2277C6.10492 17.3163 6.1184 17.4186 6.13021 17.5267C6.14552 17.6175 6.17027 17.7861 6.1852 17.9014C6.22427 18.2037 6.31655 18.4981 6.48546 18.8593C6.74396 19.4121 6.74897 19.4413 6.74879 20.3904C6.74854 21.7026 6.6609 22.269 6.31218 22.9656C6.03292 23.5234 6.03008 23.8378 6.29428 24.9452C6.41241 25.4402 6.46578 25.929 6.49977 26.2506C6.52277 26.4679 6.55012 27.82 6.5508 27.9513C6.55309 28.364 6.57037 28.5693 6.5837 29.337C6.59056 29.7471 6.56794 30.5383 6.55392 30.846C6.52414 31.5025 6.65748 32.0202 6.97545 32.3352C7.2434 32.6006 8.51628 32.8263 8.87283 32.673C8.99763 32.5993 9.07195 32.3019 8.58043 31.6116ZM23.6291 6.85801C24.879 6.60778 25.4604 6.34708 26.265 5.67614C26.9271 5.12391 27.145 4.96646 27.6158 4.70013C27.9383 4.51769 29.1333 3.91678 29.4682 3.76868C29.7942 3.62449 30.9839 3.17838 31.2166 3.11304C31.3846 3.06589 31.2917 2.9584 30.9416 2.79467C30.757 2.70839 30.7468 2.70928 30.4698 2.83565C30.2765 2.9238 30.1105 2.95569 29.6 3.00268C29.0201 3.05607 28.9596 3.09377 28.8241 3.48581C28.6798 3.90365 28.5833 3.94838 27.8339 3.94508C27.5647 3.94356 27.2597 3.95484 27.1561 3.96939C26.7068 4.03253 26.6061 4.05056 26.4281 4.09983C25.4499 4.37066 25.1289 4.58885 24.2536 5.57778C24.1009 5.75037 23.7651 6.10832 23.5075 6.37322C22.93 6.96713 22.9374 6.9965 23.6291 6.85801Z" stroke="black" stroke-width="0.322436" mask="url(#path-1-outside-1_52_9)"/>
</svg>
